<svg xmlns="http://www.w3.org/2000/svg" xmlns:xlink="http://www.w3.org/1999/xlink" viewBox="0 0 177.3 61.78"><defs><style>.cls-1{fill:#e83d7a;}.cls-1,.cls-2{fill-rule:evenodd;}.cls-2{fill:url(#GradientFill_2);}.cls-3{font-size:46px;fill:#1d1d1b;font-family:Impact;}</style><linearGradient id="GradientFill_2" x1="18.18" y1="37.83" x2="38.86" y2="62.47" gradientUnits="userSpaceOnUse"><stop offset="0" stop-color="#00a1e4"/><stop offset="1" stop-color="#003e69"/></linearGradient></defs><title>q black</title><g id="Layer_2" data-name="Layer 2"><g id="Layer_4" data-name="Layer 4"><path class="cls-1" d="M31.1.31A27.11,27.11,0,0,1,54,27V38.58l-6.57,6.58L54,51.74v8.4L34.93,41.07V10.51c0-2-1.39-3.79-3.51-4.85a10.28,10.28,0,0,0-7.85-.42c-2.66,1-4.51,3-4.51,5.27V23.42L7.16,8.73A26.89,26.89,0,0,1,31.1.31Z"/><path class="cls-2" d="M19.06,23.42V43.5c0,3.22,3.57,5.85,7.94,5.85h9.15L40.82,54H27A27,27,0,0,1,7.16,8.73l8,4.82Z"/><text class="cls-3" transform="translate(61.06 46.57)">MEDIC</text></g></g></svg>